# xmcd
#
# Track frame offsets: 
#        150
#        35743
#        61306
#        88986
#        121635
#        140828
#        161840
#        186541
#        190643
#        204462
#        245938
#        263020
#        288961
#        321948
#        339122
#
# Disc length: 4857 seconds
#
# Revision: 0
# Processed by: cddbd v1.5.2PL0 Copyright (c) Steve Scherf et al.
# Submitted via: ExactAudioCopyFreeDBPlugin 1.0
#
DISCID=e712f70f
DTITLE=Leopold Kozeluch - Sonatas for Fortepiano, Flute and Cello
DYEAR=2012
DGENRE=Classical
TTITLE0=Sonate in C-Dur - 1. Allegro
TTITLE1=Sonate in C-Dur - 2. Poco adagio
TTITLE2=Sonate in C-Dur - 3. Rondeau. Allegro
TTITLE3=Sonate in e-moll - 1. Allegro
TTITLE4=Sonate in e-moll - 2. Pocoadagio
TTITLE5=Sonate in e-moll - 3. Rondo. Allegro
TTITLE6=A Grand Scotch Sonata in D major - 1. Allegro
TTITLE7=A Grand Scotch Sonata in D major - 2. Andante
TTITLE8=A Grand Scotch Sonata in D major - 3. Rondo. Presto
TTITLE9=Sonate in C-Dur - 1. Allegro
TTITLE10=Sonate in C-Dur - 2. Andante
TTITLE11=Sonate in C-Dur - 3. Rondo. Allegro
TTITLE12=Sonate in F-Dur - 1. Allegro
TTITLE13=Sonate in F-Dur - 2. Andante
TTITLE14=Sonate in F-Dur - 3. Rondeau. Allegretto
EXTD=
EXTT0=
EXTT1=
EXTT2=
EXTT3=
EXTT4=
EXTT5=
EXTT6=
EXTT7=
EXTT8=
EXTT9=
EXTT10=
EXTT11=
EXTT12=
EXTT13=
EXTT14=
PLAYORDER=
